<svg width="39" height="31" viewBox="0 0 39 31" fill="none" xmlns="http://www.w3.org/2000/svg">
<path d="M33.8217 2.20322C28.9127 4.44512 24.081 6.80297 19.404 9.27679C19.3653 9.27679 19.3267 9.23814 19.3267 9.23814C14.611 6.76432 9.85661 4.44512 4.94763 2.20322C3.32419 1.46881 1.66209 0.734396 0 0.0386353C0.46384 7.26682 0.927681 14.5336 1.35287 21.7618C7.57606 24.6608 13.5673 27.7531 19.3653 31.0386C20.7955 30.2269 22.2643 29.4152 23.7332 28.6035C26.6708 27.0187 29.6858 25.4726 32.7394 23.9651C34.2855 23.2307 35.793 22.4576 37.3778 21.7618C37.8416 14.5336 38.3055 7.26682 38.7307 0.0386353C37.1072 0.734396 35.4451 1.46881 33.8217 2.20322ZM33.01 19.5972C29.9177 21.1047 26.8641 22.6509 23.8491 24.2356C23.8878 22.7668 23.8878 21.3366 23.9264 19.8678C26.9801 18.283 30.0723 16.7369 33.2032 15.2294C33.1259 16.6982 33.0486 18.1284 33.01 19.5972ZM33.3965 10.9002C30.2269 12.3691 27.0574 13.9152 23.9651 15.5386C22.419 16.3504 20.8728 17.1621 19.3653 17.9738C19.3267 17.9738 19.288 17.9351 19.288 17.9351C17.7806 17.1234 16.3117 16.3504 14.7656 15.5773C13.2195 14.7656 11.6733 13.9925 10.0885 13.2194C10.1272 14.6883 10.1658 16.1184 10.2431 17.5873C11.7893 18.3603 13.3354 19.1334 14.8429 19.9451C14.8815 21.4139 14.8815 22.8441 14.9202 24.313C11.9052 22.7282 8.89028 21.182 5.75935 19.6745C5.56608 15.3454 5.33416 10.9775 5.1409 6.64836C9.97257 8.7743 14.6883 11.1322 19.288 13.5673C19.3267 13.5673 19.3267 13.606 19.3653 13.606C19.3653 13.606 19.3653 13.606 19.3653 13.6446C19.3653 13.6446 19.3653 13.6446 19.404 13.6446C19.404 13.6446 19.4426 13.6446 19.4426 13.6833V13.6446C24.0424 11.2095 28.7581 8.8516 33.6284 6.60971C33.5511 8.00123 33.4738 9.4314 33.3965 10.9002Z" fill="white"/>
</svg>
